<?xml version="1.0" encoding="utf-8"?>
<!-- Generator: Adobe Illustrator 19.0.0, SVG Export Plug-In . SVG Version: 6.00 Build 0)  -->
<svg version="1.1" id="Layer_1" xmlns="http://www.w3.org/2000/svg" xmlns:xlink="http://www.w3.org/1999/xlink" x="0px" y="0px"
	 viewBox="0 0 777 1023.4" style="enable-background:new 0 0 777 1023.4;" xml:space="preserve">
<style type="text/css">
	.st0{fill:#EF9A3C;stroke:#EF9A3C;stroke-width:10;stroke-miterlimit:10;}
	.st1{fill:none;stroke:#EF9A3C;stroke-width:10;stroke-miterlimit:10;}
	.st2{fill:none;stroke:#EA2F69;stroke-width:10;stroke-miterlimit:10;}
	.st3{fill:#EA2F69;stroke:#EA2F69;stroke-width:10;stroke-miterlimit:10;}
	.st4{fill:none;stroke:#2B2B2B;stroke-width:10;stroke-miterlimit:10;}
	.st5{fill:#2B2B2B;stroke:#2B2B2B;stroke-width:10;stroke-miterlimit:10;}
</style>
<g id="XMLID_127_">
	<polyline id="XMLID_136_" class="st0" points="422.9,599.3 489.9,599.3 489.9,639.3 422.9,639.3 	"/>
	<line id="XMLID_134_" class="st1" x1="396.9" y1="639.3" x2="269.9" y2="639.3"/>
	<polyline id="XMLID_146_" class="st1" points="422.9,639.3 489.9,639.3 489.9,599.3 489.9,478.8 489.9,457.3 	"/>
	<polyline id="XMLID_145_" class="st1" points="269.9,557.3 269.9,318.3 455.9,318.3 	"/>
	<polyline id="XMLID_142_" class="st1" points="489.9,339.3 489.9,379 489.9,379.3 	"/>
	<line id="XMLID_133_" class="st1" x1="396.9" y1="639.3" x2="269.9" y2="639.3"/>
</g>
<g id="XMLID_58_">
	<polyline id="XMLID_64_" class="st1" points="231,735.6 231,757.1 230.9,920 230.9,942.3 230.9,960 230.9,981.3 230.9,981.4 
		29.9,981.3 29.9,942.3 30.1,657.3 125.5,657.4 	"/>
	<rect id="XMLID_55_" x="29.9" y="942.3" class="st0" width="201.2" height="39"/>
</g>
<g id="XMLID_126_">
	<rect id="XMLID_54_" x="125.5" y="557.6" class="st2" width="297" height="199.5"/>
	<rect id="XMLID_56_" x="125.5" y="735.6" class="st3" width="297" height="21.5"/>
</g>
<g id="XMLID_61_">
	<rect id="XMLID_59_" x="176.9" y="639" class="st4" width="220" height="321"/>
	<rect id="XMLID_60_" x="176.9" y="920" class="st5" width="220" height="40"/>
</g>
<g id="XMLID_128_">
	<rect id="XMLID_130_" x="456.4" y="279.3" class="st4" width="297" height="199.5"/>
	<rect id="XMLID_129_" x="456.4" y="457.3" class="st5" width="297" height="21.5"/>
</g>
<g id="XMLID_131_">
	<rect id="XMLID_137_" x="426.4" y="58" class="st2" width="220" height="321"/>
	<rect id="XMLID_132_" x="426.4" y="339" class="st3" width="220" height="40"/>
</g>
</svg>
