<?xml version="1.0" encoding="utf-8"?>
<!-- Generator: Adobe Illustrator 19.0.0, SVG Export Plug-In . SVG Version: 6.00 Build 0)  -->
<svg version="1.1" id="Layer_1" xmlns="http://www.w3.org/2000/svg" xmlns:xlink="http://www.w3.org/1999/xlink" x="0px" y="0px"
	 viewBox="0 0 417 498" style="enable-background:new 0 0 417 498;" xml:space="preserve">
<style type="text/css">
	.st0{fill:#2B2B2B;}
	.st1{fill:#FB8A17;}
	.st2{fill:#EFEFEF;}
	.st3{fill:none;stroke:#2B2B2B;stroke-width:8;stroke-miterlimit:10;}
	.st4{fill:#DB145E;}
	.st5{fill:none;stroke:#DB145E;stroke-width:4;stroke-miterlimit:10;}
</style>
<circle id="XMLID_4_" class="st0" cx="271.6" cy="67.4" r="59.4"/>
<circle id="XMLID_3_" class="st1" cx="218.5" cy="126.8" r="83.8"/>
<g id="XMLID_58_">
	<path id="XMLID_74_" class="st2" d="M185.4,111.8l3.6,13.1c0.2,0.8,0.4,1.7,0.6,2.7s0.4,2,0.6,3.2c0-1,0.1-2,0.2-3
		c0.1-1,0.3-1.9,0.6-2.9l3.1-13.1h5.1l-6.3,24.1h-4.9l-4.3-15.4c-0.2-0.7-0.4-1.4-0.5-2.1c-0.1-0.7-0.2-1.5-0.2-2.2
		c-0.1,0.8-0.1,1.6-0.3,2.3c-0.1,0.7-0.3,1.4-0.5,2l-4.3,15.4h-4.9l-6.3-24.1h5.1l3.2,13.4c0.2,0.8,0.3,1.6,0.4,2.5
		c0.1,0.9,0.2,1.9,0.2,2.9c0.2-1.4,0.6-3.2,1.2-5.3l0.1-0.3l3.5-13.1H185.4z"/>
	<path id="XMLID_76_" class="st2" d="M202.1,135.9v-25.5h4.6v9.1c0,0.5,0,1,0,1.5c0,0.5-0.1,1-0.1,1.5c1-1.1,1.9-1.9,2.9-2.4
		c1-0.5,2.1-0.8,3.2-0.8c1.3,0,2.3,0.2,3.2,0.6s1.5,1.1,2,1.9c0.2,0.4,0.4,1,0.5,1.5c0.1,0.6,0.2,1.4,0.2,2.7v0.5v9.4h-4.7v-8
		c0-2-0.2-3.3-0.7-3.9c-0.5-0.6-1.2-1-2.4-1c-0.6,0-1.2,0.1-1.8,0.4c-0.5,0.3-1,0.6-1.4,1.1c-0.3,0.4-0.5,0.8-0.6,1.3
		c-0.1,0.5-0.2,1.2-0.2,2.3v0.6v7.1H202.1z"/>
	<path id="XMLID_78_" class="st2" d="M239,135.9h-4.5l0.1-2.3c-0.6,1-1.4,1.8-2.3,2.2c-0.9,0.5-2,0.7-3.3,0.7
		c-2.1,0-3.9-0.8-5.2-2.4s-2-3.7-2-6.3c0-2.7,0.6-4.8,1.9-6.4c1.3-1.5,3.1-2.3,5.4-2.3c1.2,0,2.2,0.3,3.1,0.8s1.7,1.3,2.3,2.4v-2.7
		h4.4V135.9z M234.8,127.8c0-1.4-0.4-2.6-1.1-3.4c-0.7-0.8-1.7-1.3-3-1.3c-1.3,0-2.3,0.4-3,1.3c-0.7,0.8-1.1,2-1.1,3.4
		c0,1.5,0.4,2.6,1.1,3.4c0.7,0.8,1.7,1.2,3,1.2c1.3,0,2.3-0.4,3-1.2S234.8,129.2,234.8,127.8z"/>
	<path id="XMLID_81_" class="st2" d="M244,135.9v-12.5h-2.3v-3.7h2.3v-5.4h4.7v5.4h2.3v3.7h-2.3v12.5H244z"/>
	<path id="XMLID_83_" class="st2" d="M263.2,128.8h-4.5v-7h1.4c1.1,0,2-0.3,2.6-1s0.9-1.5,0.9-2.7c0-1-0.2-1.8-0.7-2.4
		c-0.5-0.6-1.1-0.8-2-0.8c-0.9,0-1.5,0.3-2,0.8c-0.5,0.5-0.7,1.3-0.7,2.3c0,0.1,0,0.1,0,0.2c0,0.1,0,0.2,0,0.2h-4.7V118
		c0-2,0.7-3.7,2.1-4.9c1.4-1.2,3.2-1.8,5.5-1.8c2.2,0,4,0.6,5.3,1.9c1.3,1.3,1.9,3,1.9,5.2c0,1.7-0.4,3.1-1.3,4.1
		c-0.9,1.1-2.2,1.8-3.9,2.1V128.8z M258.1,133.7c0-0.8,0.3-1.4,0.8-2s1.2-0.8,2-0.8c0.8,0,1.5,0.3,2,0.8c0.5,0.5,0.8,1.2,0.8,2
		s-0.3,1.4-0.8,2c-0.5,0.6-1.2,0.8-2,0.8c-0.8,0-1.4-0.3-2-0.8S258.1,134.4,258.1,133.7z"/>
</g>
<circle id="XMLID_2_" class="st3" cx="128.5" cy="210.5" r="117.5"/>
<circle id="XMLID_1_" class="st4" cx="246" cy="328" r="165"/>
<circle id="XMLID_5_" class="st5" cx="312.8" cy="108.6" r="41.2"/>
<g id="XMLID_61_">
	<path id="XMLID_62_" class="st2" d="M197.9,308.3l5.3,19.4c0.3,1.2,0.7,2.6,1,4s0.6,3,0.8,4.8c0-1.5,0.1-2.9,0.3-4.4
		c0.2-1.4,0.5-2.9,0.8-4.4l4.6-19.4h7.5l-9.4,35.7h-7.3l-6.4-22.8c-0.3-1-0.6-2.1-0.7-3.1c-0.2-1.1-0.3-2.2-0.4-3.3
		c-0.1,1.2-0.2,2.3-0.4,3.4c-0.2,1.1-0.4,2.1-0.7,3l-6.4,22.8h-7.3l-9.4-35.7h7.6l4.7,19.8c0.3,1.1,0.5,2.4,0.6,3.7
		c0.2,1.3,0.3,2.8,0.4,4.3c0.3-2.1,0.9-4.7,1.7-7.9l0.1-0.5l5.2-19.5H197.9z"/>
	<path id="XMLID_64_" class="st2" d="M222.6,344v-37.8h6.8v13.5c0,0.7,0,1.5-0.1,2.2c0,0.7-0.1,1.5-0.2,2.2c1.4-1.7,2.9-2.9,4.3-3.6
		c1.4-0.7,3-1.1,4.8-1.1c1.9,0,3.4,0.3,4.7,1c1.3,0.6,2.3,1.6,3,2.9c0.4,0.7,0.6,1.4,0.8,2.3c0.2,0.8,0.2,2.2,0.2,3.9v0.8v14h-7
		v-11.8c0-2.9-0.3-4.9-1-5.8c-0.7-0.9-1.9-1.4-3.5-1.4c-1,0-1.8,0.2-2.6,0.6c-0.8,0.4-1.5,1-2,1.7c-0.4,0.6-0.7,1.2-0.9,2
		c-0.2,0.7-0.3,1.8-0.3,3.3v1V344H222.6z"/>
	<path id="XMLID_66_" class="st2" d="M277.5,344h-6.7l0.1-3.4c-0.9,1.5-2.1,2.6-3.4,3.3c-1.3,0.7-2.9,1.1-4.8,1.1
		c-3.2,0-5.7-1.2-7.7-3.5c-1.9-2.4-2.9-5.5-2.9-9.4c0-4,1-7.2,2.9-9.4c1.9-2.3,4.6-3.4,8-3.4c1.8,0,3.3,0.4,4.7,1.2
		c1.3,0.8,2.5,2,3.4,3.6v-4h6.6V344z M271.2,332c0-2.1-0.5-3.8-1.6-5.1c-1.1-1.3-2.5-1.9-4.4-1.9c-1.9,0-3.4,0.6-4.5,1.9
		c-1.1,1.2-1.6,3-1.6,5.1c0,2.2,0.5,3.8,1.6,5.1c1.1,1.2,2.5,1.8,4.4,1.8c1.9,0,3.4-0.6,4.5-1.8C270.7,335.8,271.2,334.2,271.2,332z
		"/>
	<path id="XMLID_69_" class="st2" d="M284.9,344v-18.5h-3.3V320h3.3v-8h7v8h3.3v5.4h-3.3V344H284.9z"/>
	<path id="XMLID_71_" class="st2" d="M313.4,333.6h-6.7v-10.4h2.1c1.7,0,3-0.5,3.9-1.4c0.9-1,1.4-2.3,1.4-4c0-1.5-0.3-2.7-1-3.6
		c-0.7-0.8-1.7-1.2-2.9-1.2c-1.3,0-2.3,0.4-3,1.2s-1,1.9-1,3.4c0,0.1,0,0.2,0,0.4c0,0.2,0,0.3,0,0.4h-6.9v-0.8c0-3,1-5.5,3.1-7.3
		c2.1-1.8,4.8-2.7,8.2-2.7c3.3,0,5.9,0.9,7.8,2.8c1.9,1.9,2.9,4.4,2.9,7.7c0,2.5-0.7,4.5-2,6.1c-1.3,1.6-3.3,2.6-5.8,3.2V333.6z
		 M305.8,340.8c0-1.2,0.4-2.1,1.2-2.9c0.8-0.8,1.8-1.2,3-1.2c1.2,0,2.2,0.4,3,1.2c0.8,0.8,1.2,1.8,1.2,2.9c0,1.2-0.4,2.1-1.2,3
		c-0.8,0.8-1.8,1.2-3,1.2c-1.2,0-2.1-0.4-3-1.2C306.3,342.9,305.8,341.9,305.8,340.8z"/>
</g>
</svg>
